<?xml version="1.0" encoding="UTF-8" standalone="no"?><!DOCTYPE svg PUBLIC "-//W3C//DTD SVG 1.1//EN" "http://www.w3.org/Graphics/SVG/1.1/DTD/svg11.dtd"><!-- Generated by graphviz version 2.40.1 (20161225.0304)
 --><!-- Title: pki Pages: 1 --><svg xmlns="http://www.w3.org/2000/svg" xmlns:xlink="http://www.w3.org/1999/xlink" width="504pt" height="489pt" viewBox="0.00 0.00 504.00 489.27">
<g id="graph0" class="graph" transform="scale(.707 .707) rotate(0) translate(4 688)">
<title>pki</title>
<polygon fill="#ffffff" stroke="transparent" points="-4,4 -4,-688 708.828,-688 708.828,4 -4,4"/>
<!-- 1937 -->
<g id="node1" class="node">
<title>1937</title>
<text text-anchor="middle" x="28" y="-660" font-family="Times,serif" font-size="20.00" fill="#000000">1937</text>
</g>
<!-- 1947 -->
<g id="node2" class="node">
<title>1947</title>
<text text-anchor="middle" x="28" y="-588" font-family="Times,serif" font-size="20.00" fill="#000000">1947</text>
</g>
<!-- 1937&#45;&gt;1947 -->
<!-- 1981 -->
<g id="node3" class="node">
<title>1981</title>
<text text-anchor="middle" x="28" y="-516" font-family="Times,serif" font-size="20.00" fill="#000000">1981</text>
</g>
<!-- 1947&#45;&gt;1981 -->
<!-- 1989 -->
<g id="node4" class="node">
<title>1989</title>
<text text-anchor="middle" x="28" y="-444" font-family="Times,serif" font-size="20.00" fill="#000000">1989</text>
</g>
<!-- 1981&#45;&gt;1989 -->
<!-- 1993 -->
<g id="node5" class="node">
<title>1993</title>
<text text-anchor="middle" x="28" y="-372" font-family="Times,serif" font-size="20.00" fill="#000000">1993</text>
</g>
<!-- 1989&#45;&gt;1993 -->
<!-- 1997 -->
<g id="node6" class="node">
<title>1997</title>
<text text-anchor="middle" x="28" y="-300" font-family="Times,serif" font-size="20.00" fill="#000000">1997</text>
</g>
<!-- 1993&#45;&gt;1997 -->
<!-- 1999 -->
<g id="node7" class="node">
<title>1999</title>
<text text-anchor="middle" x="28" y="-228" font-family="Times,serif" font-size="20.00" fill="#000000">1999</text>
</g>
<!-- 1997&#45;&gt;1999 -->
<!-- 2000 -->
<g id="node8" class="node">
<title>2000</title>
<text text-anchor="middle" x="28" y="-156" font-family="Times,serif" font-size="20.00" fill="#000000">2000</text>
</g>
<!-- 1999&#45;&gt;2000 -->
<!-- 2006 -->
<g id="node9" class="node">
<title>2006</title>
<text text-anchor="middle" x="28" y="-84" font-family="Times,serif" font-size="20.00" fill="#000000">2006</text>
</g>
<!-- 2000&#45;&gt;2006 -->
<!-- 2023 -->
<g id="node10" class="node">
<title>2023</title>
<text text-anchor="middle" x="28" y="-12" font-family="Times,serif" font-size="20.00" fill="#000000">2023</text>
</g>
<!-- 2006&#45;&gt;2023 -->
<!-- e -->
<g id="node15" class="node">
<title>e</title>
<polygon fill="none" stroke="#000000" points="153.8327,-36 74.1673,-36 74.1673,0 153.8327,0 153.8327,-36"/>
<text text-anchor="middle" x="114" y="-12" font-family="Times,serif" font-size="20.00" fill="#000000">Revvity</text>
</g>
<!-- 2023&#45;&gt;e -->
<!-- a -->
<g id="node11" class="node">
<title>a</title>
<polygon fill="none" stroke="#000000" points="460.582,-684 343.418,-684 343.418,-648 460.582,-648 460.582,-684"/>
<text text-anchor="middle" x="402" y="-660" font-family="Times,serif" font-size="20.00" fill="#000000">PerkinElmer</text>
</g>
<!-- gi -->
<g id="node22" class="node">
<title>gi</title>
<ellipse fill="#000000" stroke="#000000" cx="402" cy="-378" rx="0" ry="0"/>
</g>
<!-- a&#45;&gt;gi -->
<g id="edge11" class="edge">
<title>a-&gt;gi</title>
<path fill="none" stroke="#000000" d="M402,-647.9843C402,-585.9192 402,-384.4316 402,-378.1502"/>
</g>
<!-- b -->
<g id="node12" class="node">
<title>b</title>
<polygon fill="none" stroke="#000000" points="182.1528,-612 109.8472,-612 109.8472,-576 182.1528,-576 182.1528,-612"/>
<text text-anchor="middle" x="146" y="-588" font-family="Times,serif" font-size="20.00" fill="#000000">EG&amp;G</text>
</g>
<!-- c -->
<g id="node13" class="node">
<title>c</title>
<polygon fill="none" stroke="#000000" points="230.582,-252 113.418,-252 113.418,-216 230.582,-216 230.582,-252"/>
<text text-anchor="middle" x="172" y="-228" font-family="Times,serif" font-size="20.00" fill="#000000">PerkinElmer</text>
</g>
<!-- b&#45;&gt;c -->
<g id="edge19" class="edge">
<title>b-&gt;c</title>
<path fill="none" stroke="#000000" d="M146,-575.8146C146,-548.4983 146,-495.25 146,-450 146,-450 146,-450 146,-378 146,-337.2738 156.196,-291.0849 163.818,-262.2458"/>
<polygon fill="#000000" stroke="#000000" points="167.2356,-263.0164 166.4861,-252.4481 160.4815,-261.1771 167.2356,-263.0164"/>
</g>
<!-- cdi -->
<g id="node24" class="node">
<title>cdi</title>
<ellipse fill="#000000" stroke="#000000" cx="249" cy="-234" rx="0" ry="0"/>
</g>
<!-- c&#45;&gt;cdi -->
<!-- efi -->
<g id="node26" class="node">
<title>efi</title>
<ellipse fill="#000000" stroke="#000000" cx="172" cy="-18" rx="0" ry="0"/>
</g>
<!-- c&#45;&gt;efi -->
<g id="edge29" class="edge">
<title>c-&gt;efi</title>
<path fill="none" stroke="#000000" d="M172,-215.9555C172,-164.8532 172,-22.5408 172,-18.106"/>
</g>
<!-- d -->
<g id="node14" class="node">
<title>d</title>
<polygon fill="none" stroke="#000000" points="407.484,-252 266.516,-252 266.516,-216 407.484,-216 407.484,-252"/>
<text text-anchor="middle" x="337" y="-228" font-family="Times,serif" font-size="20.00" fill="#000000">PE Corporation</text>
</g>
<!-- h -->
<g id="node18" class="node">
<title>h</title>
<polygon fill="none" stroke="#000000" points="377.4111,-180 296.5889,-180 296.5889,-144 377.4111,-144 377.4111,-180"/>
<text text-anchor="middle" x="337" y="-156" font-family="Times,serif" font-size="20.00" fill="#000000">Applera</text>
</g>
<!-- d&#45;&gt;h -->
<g id="edge20" class="edge">
<title>d-&gt;h</title>
<path fill="none" stroke="#000000" d="M337,-215.8314C337,-208.131 337,-198.9743 337,-190.4166"/>
<polygon fill="#000000" stroke="#000000" points="340.5001,-190.4132 337,-180.4133 333.5001,-190.4133 340.5001,-190.4132"/>
</g>
<!-- e&#45;&gt;efi -->
<!-- f -->
<g id="node16" class="node">
<title>f</title>
<polygon fill="none" stroke="#000000" points="307.582,-36 190.418,-36 190.418,0 307.582,0 307.582,-36"/>
<text text-anchor="middle" x="249" y="-12" font-family="Times,serif" font-size="20.00" fill="#000000">PerkinElmer</text>
</g>
<!-- g -->
<g id="node17" class="node">
<title>g</title>
<polygon fill="none" stroke="#000000" points="607.6563,-540 430.3437,-540 430.3437,-504 607.6563,-504 607.6563,-540"/>
<text text-anchor="middle" x="519" y="-516" font-family="Times,serif" font-size="20.00" fill="#000000">Applied Biosystems</text>
</g>
<!-- g&#45;&gt;gi -->
<g id="edge10" class="edge">
<title>g-&gt;gi</title>
<path fill="none" stroke="#000000" d="M504.1819,-503.7623C473.1907,-465.6194 404.1998,-380.7074 402.0514,-378.0632"/>
</g>
<!-- iji -->
<g id="node25" class="node">
<title>iji</title>
<ellipse fill="#000000" stroke="#000000" cx="337" cy="-90" rx="0" ry="0"/>
</g>
<!-- h&#45;&gt;iji -->
<g id="edge23" class="edge">
<title>h-&gt;iji</title>
<path fill="none" stroke="#000000" d="M337,-143.8314C337,-123.1685 337,-92.0205 337,-90.0939"/>
</g>
<!-- i -->
<g id="node19" class="node">
<title>i</title>
<polygon fill="none" stroke="#000000" points="704.6563,-108 527.3437,-108 527.3437,-72 704.6563,-72 704.6563,-108"/>
<text text-anchor="middle" x="616" y="-84" font-family="Times,serif" font-size="20.00" fill="#000000">Applied Biosystems</text>
</g>
<!-- i&#45;&gt;iji -->
<!-- j -->
<g id="node20" class="node">
<title>j</title>
<polygon fill="none" stroke="#000000" points="509.2762,-108 354.7238,-108 354.7238,-72 509.2762,-72 509.2762,-108"/>
<text text-anchor="middle" x="432" y="-84" font-family="Times,serif" font-size="20.00" fill="#000000">Celera Genomics</text>
</g>
<!-- k -->
<g id="node21" class="node">
<title>k</title>
<polygon fill="none" stroke="#000000" points="373.868,-468 174.132,-468 174.132,-432 373.868,-432 373.868,-468"/>
<text text-anchor="middle" x="274" y="-444" font-family="Times,serif" font-size="20.00" fill="#000000">PerSeptive Biosystems</text>
</g>
<!-- ki -->
<g id="node23" class="node">
<title>ki</title>
<ellipse fill="#000000" stroke="#000000" cx="274" cy="-306" rx="0" ry="0"/>
</g>
<!-- k&#45;&gt;ki -->
<g id="edge12" class="edge">
<title>k-&gt;ki</title>
<path fill="none" stroke="#000000" d="M274,-431.7623C274,-393.6194 274,-308.7074 274,-306.0632"/>
</g>
<!-- gi&#45;&gt;ki -->
<g id="edge13" class="edge">
<title>gi-&gt;ki</title>
<path fill="none" stroke="#000000" d="M401.9072,-377.9478C398.0918,-375.8016 277.8466,-308.1637 274.0899,-306.0506"/>
</g>
<!-- ki&#45;&gt;cdi -->
<g id="edge16" class="edge">
<title>ki-&gt;cdi</title>
<path fill="none" stroke="#000000" d="M273.9819,-305.9478C273.2367,-303.8016 249.7513,-236.1637 249.0176,-234.0506"/>
</g>
<!-- cdi&#45;&gt;c -->
<g id="edge17" class="edge">
<title>cdi-&gt;c</title>
<path fill="none" stroke="#000000" d="M248.7133,-234.2003C245.7972,-236.2301 242.8811,-238.0276 239.965,-239.5927"/>
<polygon fill="#000000" stroke="#000000" points="238.3237,-236.4936 230.6523,-243.8012 241.2064,-242.8725 238.3237,-236.4936"/>
</g>
<!-- cdi&#45;&gt;d -->
<!-- cdi&#45;&gt;d -->
<g id="edge18" class="edge">
<title>cdi-&gt;d</title>
<path fill="none" stroke="#000000" d="M249.3438,-234C251.6621,-234 253.9805,-234 256.2989,-234"/>
<polygon fill="#000000" stroke="#000000" points="256.4641,-237.5001 266.4641,-234 256.4641,-230.5001 256.4641,-237.5001"/>
</g>
<!-- iji&#45;&gt;i -->
<g id="edge24" class="edge">
<title>iji-&gt;i</title>
<path fill="none" stroke="#000000" d="M337.0099,-90.0893C337.2171,-91.9197 340.8017,-121.3709 358,-132 385.977,-149.2907 473.6565,-137.9647 506,-132 527.4968,-128.0356 550.2277,-120.055 569.4109,-112.105"/>
<polygon fill="#000000" stroke="#000000" points="570.9817,-115.2402 578.807,-108.0977 568.2356,-108.8013 570.9817,-115.2402"/>
</g>
<!-- iji&#45;&gt;j -->
<!-- iji&#45;&gt;j -->
<g id="edge25" class="edge">
<title>iji-&gt;j</title>
<path fill="none" stroke="#000000" d="M337.3711,-90C339.8142,-90 342.2573,-90 344.7004,-90"/>
<polygon fill="#000000" stroke="#000000" points="344.7444,-93.5001 354.7444,-90 344.7443,-86.5001 344.7444,-93.5001"/>
</g>
<!-- efi&#45;&gt;e -->
<g id="edge30" class="edge">
<title>efi-&gt;e</title>
<path fill="none" stroke="#000000" d="M171.7168,-18.2624C168.8361,-20.9182 165.9554,-23.1744 163.0747,-25.031"/>
<polygon fill="#000000" stroke="#000000" points="161.2734,-22.0177 153.875,-29.6016 164.3879,-28.2867 161.2734,-22.0177"/>
</g>
<!-- efi&#45;&gt;f -->
<!-- efi&#45;&gt;f -->
<g id="edge31" class="edge">
<title>efi-&gt;f</title>
<path fill="none" stroke="#000000" d="M172.3008,-18C174.9223,-18 177.5439,-18 180.1654,-18"/>
<polygon fill="#000000" stroke="#000000" points="180.2772,-21.5001 190.2772,-18 180.2771,-14.5001 180.2772,-21.5001"/>
</g>
</g>
</svg>